<?xml version="1.0" encoding="utf-8"?>
<!-- Generator: Adobe Illustrator 18.1.0, SVG Export Plug-In . SVG Version: 6.00 Build 0)  -->
<svg version="1.1" id="Layer_1" xmlns="http://www.w3.org/2000/svg" xmlns:xlink="http://www.w3.org/1999/xlink" x="0px" y="0px"
	 viewBox="0 0 182.3 113.2" enable-background="new 0 0 182.3 113.2" xml:space="preserve">
<g>
	<path fill="none" d="M55.6,13.8c-7.8,0-14.8,1.9-21.3,5.6c-6.5,3.7-11.7,8.7-15.5,14.8c-2.1,3.3-3.6,6.9-4.7,10.7
		c-1.2,3.9-1.7,7.9-1.7,12c0,4.2,0.6,8.2,1.7,12c1.1,3.9,2.6,7.5,4.7,10.8c3.8,6.2,9,11.1,15.5,14.8c6.4,3.7,13.5,5.6,21.3,5.6
		c6,0,11.6-1.2,16.9-3.5c5.1-2.2,9.6-5.1,13.4-8.9L54.3,54.9l30.8-29.4c-3.7-3.4-7.9-6.2-12.7-8.3C67.2,14.9,61.5,13.8,55.6,13.8z"
		/>
	<g>
		<path fill="#10547B" d="M75.2,103.2c-6.1,2.6-12.6,3.9-19.5,3.9c-4.8,0-9.5-0.7-13.9-2c-4.5-1.2-8.6-3.1-12.4-5.5
			c-7.1-4.5-12.8-10.4-17.1-17.9C7.9,74.2,5.7,66,5.7,56.9c0-8.9,2.2-17.1,6.6-24.6c4.3-7.5,10-13.5,17.1-17.9
			c3.8-2.4,8-4.2,12.4-5.5c4.5-1.3,9.1-2,13.9-2c7,0,13.5,1.3,19.5,3.9c5.6,2.5,10.6,5.8,15,9.9l5.4-5.2
			c-4.9-4.6-10.5-8.4-16.9-11.2C71.9,1.4,64.5,0,56.7,0C51.2,0,46,0.7,40.9,2.2c-5,1.4-9.7,3.5-14.1,6.2c-8.1,5-14.5,11.8-19.3,20.3
			c-4.9,8.5-7.4,17.7-7.4,27.8c0,10.2,2.5,19.5,7.4,28c4.8,8.5,11.3,15.2,19.3,20.2c4.3,2.7,9,4.8,14.1,6.2c5,1.5,10.3,2.3,15.7,2.3
			c7.9,0,15.2-1.5,22.1-4.4c6.3-2.8,11.8-6.4,16.7-11l-4.7-4.9C86.2,97.2,81.1,100.6,75.2,103.2z"/>
		<path fill="#72B9AA" d="M75.5,11.4c-6-2.5-12.3-3.8-19.1-3.8c-8.8,0-16.8,2.1-24.1,6.4c-7.4,4.2-13.2,9.9-17.6,16.8
			c-2.3,3.7-4.1,7.8-5.3,12.1c-1.3,4.4-2,9-2,13.6c0,4.8,0.7,9.3,2,13.6c1.2,4.4,3,8.5,5.3,12.3c4.3,7,10.2,12.6,17.6,16.8
			c7.3,4.2,15.3,6.4,24.1,6.4c6.8,0,13.1-1.3,19.1-3.9c5.4-2.3,10.4-5.5,14.6-9.4L86,88c-3.9,3.8-8.5,6.8-13.6,9
			c-5.3,2.3-10.9,3.5-16.9,3.5c-7.8,0-14.9-1.9-21.3-5.6c-6.5-3.8-11.7-8.7-15.6-14.9c-2.1-3.3-3.6-6.9-4.7-10.9
			c-1.2-3.8-1.7-7.9-1.7-12.1c0-4.1,0.6-8.1,1.7-12.1c1.1-3.8,2.6-7.4,4.7-10.7c3.8-6.2,9-11.1,15.6-14.9c6.4-3.8,13.6-5.6,21.3-5.6
			c6,0,11.6,1.1,16.9,3.4c4.8,2.1,9.4,4.9,13.1,8.4l4.5-4.6C85.7,17,80.9,13.8,75.5,11.4z"/>
	</g>
	<g>
		<path fill="#72B9AA" d="M75.3,101.3c-6,2.6-12,3.3-18.8,3.3c-8.8,0-16.9-2.1-24.2-6.4C25,94,19.1,88.4,14.7,81.4
			c-2.3-3.7-3.1-6.6-4.3-11c-1.3-4.3-2-8.9-2-13.6c0-4.6,0.7-9.2,2-13.6c1.2-4.3,3-8.4,5.3-12.1c4.4-7,9.2-12.1,16.6-16.4
			c7.3-4.2,15.3-6.4,24.2-6.4c6.8,0,13.2,1.3,19.1,3.8c5.4,2.4,9.7,5.3,13.9,9.2l0.7-0.6c-4.4-4.1-9.4-7.4-15-9.9
			c-6.1-2.6-12.6-3.9-19.6-3.9c-4.8,0-9.5,0.7-14,2c-4.5,1.3-8.7,3.1-12.5,5.5c-7.2,4.5-12.9,10.5-17.2,18C7.5,39.8,5.3,48,5.3,56.9
			c0,9,2.2,17.3,6.6,24.8c4.3,7.5,10,13.5,17.2,18c3.9,2.4,8,4.3,12.5,5.5c4.5,1.3,9.1,2,14,2c7,0,13.5-1.3,19.6-3.9
			c5.9-2.6,11.1-6.1,15.5-10.4l-1-1C86,95.4,81.2,98.8,75.3,101.3z"/>
	</g>
</g>
<g>
	<path fill="#10547B" stroke="#FFFFFF" stroke-width="2" stroke-miterlimit="10" d="M57.4,25.2"/>
</g>
<rect x="66" y="36.5" transform="matrix(0.609 0.7932 -0.7932 0.609 66.7059 -33.8877)" opacity="0.18" fill="#10547B" width="3.5" height="28.5"/>
<g>
	
		<rect x="48.2" y="44.4" transform="matrix(-0.4609 0.8874 -0.8874 -0.4609 133.3803 12.2206)" fill="#6EA5B2" width="29.5" height="4.5"/>
	<path fill="#FFFFFF" d="M68,33.2l3.1,1.6L58,60.1l-3.1-1.6L68,33.2 M67.6,31.8l-0.5,0.9L54,58l-0.5,0.9l0.9,0.5l3.1,1.6l0.9,0.5
		l0.5-0.9L72,35.3l0.5-0.9l-0.9-0.5l-3.1-1.6L67.6,31.8L67.6,31.8z"/>
</g>
<g>
	<polygon fill="#10547B" points="46.2,77 54,59.2 54,31.4 58.5,31.4 58.5,60.5 50.4,78.8 	"/>
	<path fill="#FFFFFF" d="M58,31.9v28.5l-7.9,17.8l-3.2-1.4l7.6-17.4V31.9H58 M59,30.9h-1h-3.5h-1v1v27.2L46,76.3l-0.4,0.9l0.9,0.4
		l3.2,1.4l0.9,0.4l0.4-0.9l7.9-17.8l0.1-0.2v-0.2V31.9V30.9L59,30.9z"/>
</g>
<g>
	<path fill="#10547B" d="M113.7,113.2l-18-70.9h9.7l8.4,35.8c2.1,8.8,4,17.7,5.3,24.5h0.2c1.2-7,3.4-15.5,5.8-24.6l9.5-35.7h9.6
		l8.6,36c2,8.4,3.9,16.8,4.9,24.3h0.2c1.5-7.8,3.5-15.7,5.7-24.5l9.4-35.7h9.4l-20.1,70.9h-9.6l-8.9-36.9c-2.2-9-3.7-16-4.6-23.1
		h-0.2c-1.3,7-2.8,14-5.5,23.1l-10.1,36.9H113.7z"/>
</g>
</svg>
