<?xml version="1.0" encoding="UTF-8" standalone="no"?>
<svg
   xmlns:dc="http://purl.org/dc/elements/1.1/"
   xmlns:cc="http://creativecommons.org/ns#"
   xmlns:rdf="http://www.w3.org/1999/02/22-rdf-syntax-ns#"
   xmlns:svg="http://www.w3.org/2000/svg"
   xmlns="http://www.w3.org/2000/svg"
   viewBox="0 0 248.21333 186.8"
   height="186.8"
   width="248.21333"
   xml:space="preserve"
   id="svg2"
   version="1.1"><metadata
     id="metadata8"><rdf:RDF><cc:Work
         rdf:about=""><dc:format>image/svg+xml</dc:format><dc:type
           rdf:resource="http://purl.org/dc/dcmitype/StillImage" /></cc:Work></rdf:RDF></metadata><defs
     id="defs6"><clipPath
       id="clipPath20"
       clipPathUnits="userSpaceOnUse"><path
         id="path18"
         d="M 0,0 H 1861.62 V 1401 H 0 Z" /></clipPath></defs><g
     transform="matrix(1.3333333,0,0,-1.3333333,0,186.8)"
     id="g10"><g
       transform="scale(0.1)"
       id="g12"><g
         id="g14"><g
           clip-path="url(#clipPath20)"
           id="g16"><path
             id="path22"
             style="fill:#25557f;fill-opacity:1;fill-rule:nonzero;stroke:none"
             d="m 751.039,368.328 c -60.664,-25.879 -125.742,-38.797 -195.301,-38.797 -48.156,0 -94.543,6.699 -139.121,20.071 -44.601,12.476 -86.066,30.769 -124.406,54.851 -71.356,44.57 -128.418,104.336 -171.219,179.238 -43.7029,74.914 -65.5467,157.395 -65.5467,247.481 0,89.16 21.8438,171.208 65.5467,246.128 42.801,74.91 99.863,134.65 171.219,179.24 38.34,24.08 79.805,42.36 124.406,54.86 44.578,13.37 90.965,20.06 139.121,20.06 69.559,0 134.637,-12.94 195.301,-38.8 56.426,-24.89 106.211,-58.01 149.512,-99.12 l 54.219,51.69 c -48.926,46.45 -105.176,83.86 -168.926,112 -68.524,29.2 -142.059,43.82 -220.645,43.82 -54.402,0 -106.797,-7.55 -157.168,-22.67 -50.39,-14.12 -97.234,-34.75 -140.547,-61.95 C 186.879,1266.04 122.406,1198.54 74.0469,1113.91 24.6719,1029.28 0.00390625,936.582 0.00390625,835.84 0.00390625,734.082 24.6719,640.898 74.0469,556.27 122.406,471.641 186.879,404.141 267.484,353.77 c 43.313,-27.211 90.157,-47.872 140.547,-61.969 50.371,-15.102 102.766,-22.66 157.168,-22.66 78.586,0 152.121,14.589 220.645,43.828 62.754,27.679 118.242,64.351 166.633,109.804 l -47.043,49.336 C 861.02,428.82 809.586,394.16 751.039,368.328" /><path
             id="path24"
             style="fill:#6bbfa4;fill-opacity:1;fill-rule:nonzero;stroke:none"
             d="m 755.609,1286.19 c -59.453,25.18 -122.918,37.79 -190.41,37.79 -87.656,0 -167.742,-21.17 -240.281,-63.47 C 251.363,1218.18 192.914,1162.27 149.613,1092.75 126.43,1055.47 108.812,1015.18 96.7227,971.855 83.6172,927.52 77.0742,882.168 77.0742,835.84 c 0,-47.363 6.543,-92.695 19.6485,-135.996 12.0893,-44.356 29.7073,-85.156 52.8903,-122.422 43.301,-69.512 101.75,-125.43 175.305,-167.734 72.539,-42.329 152.625,-63.477 240.281,-63.477 67.492,0 130.957,13.09 190.41,39.301 54.239,22.957 102.11,54 143.782,92.945 l -40.938,42.93 C 819.984,483.809 775.309,454.152 724.281,432.539 671.656,409.336 615.473,397.75 555.738,397.75 c -77.59,0 -148.488,18.734 -212.695,56.195 -65.109,37.453 -116.836,86.946 -155.168,148.477 -20.527,32.988 -36.113,69.101 -46.816,108.359 -11.602,38.321 -17.391,78.457 -17.391,120.391 0,40.996 5.789,81.133 17.391,120.39 10.703,38.333 26.289,74.008 46.816,107.008 38.332,61.54 90.059,111.03 155.168,148.48 64.207,37.46 135.105,56.19 212.695,56.19 59.735,0 115.918,-11.17 168.543,-33.44 47.864,-21.11 90.129,-48.92 126.934,-83.3 l 47.812,45.59 c -41.582,38.84 -89.336,70.25 -143.418,94.1" /><path
             id="path26"
             style="fill:#6bbfa4;fill-opacity:1;fill-rule:nonzero;stroke:none"
             d="m 755.609,385.512 c -59.453,-26.211 -122.918,-39.301 -190.41,-39.301 -87.656,0 -167.742,21.148 -240.281,63.477 -73.555,42.304 -132.004,98.222 -175.305,167.734 -23.183,37.266 -40.801,78.066 -52.8903,122.422 -13.1055,43.301 -19.6485,88.633 -19.6485,135.996 0,46.328 6.543,91.68 19.6485,136.015 12.0893,43.325 29.7073,83.615 52.8903,120.895 43.301,69.52 101.75,125.43 175.305,167.76 72.539,42.3 152.625,63.47 240.281,63.47 67.492,0 130.957,-12.61 190.41,-37.79 54.082,-23.85 101.836,-55.26 143.418,-94.1 l 1.524,1.45 c -43.301,41.11 -93.086,74.23 -149.512,99.12 -60.664,25.86 -125.742,38.8 -195.301,38.8 -48.156,0 -94.543,-6.69 -139.121,-20.06 -44.601,-12.5 -86.066,-30.78 -124.406,-54.86 C 220.855,1211.95 163.793,1152.21 120.992,1077.3 77.2891,1002.38 55.4453,920.332 55.4453,831.172 c 0,-90.086 21.8438,-172.567 65.5467,-247.481 42.801,-74.902 99.863,-134.668 171.219,-179.238 38.34,-24.082 79.805,-42.375 124.406,-54.851 44.578,-13.372 90.965,-20.071 139.121,-20.071 69.559,0 134.637,12.918 195.301,38.797 58.547,25.832 109.981,60.492 154.395,103.781 l -6.043,6.348 C 857.719,439.512 809.848,408.469 755.609,385.512" /><path
             id="path28"
             style="fill:#ced2df;fill-opacity:1;fill-rule:nonzero;stroke:none"
             d="m 574.945,793.43 -21.269,27.703 225.84,173.332 21.269,-27.707 -225.84,-173.328" /><path
             id="path30"
             style="fill:#68a4ad;fill-opacity:1;fill-rule:nonzero;stroke:none"
             d="m 541.934,814.449 135.839,261.521 39.872,-20.71 -135.836,-261.514 -39.875,20.703" /><path
             id="path32"
             style="fill:#ffffff;fill-opacity:1;fill-rule:nonzero;stroke:none"
             d="m 675.645,1082.71 -4.61,-8.87 -131.23,-252.649 -4.614,-8.875 8.875,-4.613 30.996,-16.09 8.879,-4.605 4.606,8.871 131.226,252.641 4.614,8.87 -8.875,4.61 -30.996,16.1 z m 4.261,-13.48 30.996,-16.11 -131.23,-252.632 -30.996,16.094 131.23,252.648" /><path
             id="path34"
             style="fill:#25557f;fill-opacity:1;fill-rule:nonzero;stroke:none"
             d="m 462.434,631.453 77.902,177.567 v 278.19 H 585.27 V 796.445 l -81.731,-183.027 -41.105,18.035" /><path
             id="path36"
             style="fill:#ffffff;fill-opacity:1;fill-rule:nonzero;stroke:none"
             d="M 590.27,1092.21 H 535.336 V 810.07 l -75.473,-172.035 -4.019,-9.148 9.156,-4.024 31.98,-14.035 9.098,-3.992 4.055,9.07 79.265,177.528 0.872,1.949 z m -10,-10 V 797.512 L 501,619.988 l -31.98,14.035 76.316,173.946 v 274.241 h 34.934" /><g
             transform="scale(10)"
             id="g38"><text
               id="text42"
               style="font-variant:normal;font-weight:300;font-size:105.13500214px;font-family:AkzidenzGroteskBE;-inkscape-font-specification:AkzidenzGroteskBE-Light;writing-mode:lr-tb;fill:#25557f;fill-opacity:1;fill-rule:nonzero;stroke:none"
               transform="matrix(1,0,0,-1,94.168,26.9148)"><tspan
                 id="tspan40"
                 y="0"
                 x="0">W</tspan></text>
</g></g></g></g></g></svg>