<svg width="475.088" height="475.088" xmlns="http://www.w3.org/2000/svg">

 <g>
  <title>background</title>
  <rect fill="none" id="canvas_background" height="402" width="582" y="-1" x="-1"/>
 </g>
 <g>
  <title>Layer 1</title>
  <g id="svg_1">
   <g id="svg_2">
    <path fill="#35536b" id="svg_3" d="m391.29,310.91c-13.135,-18.842 -19.698,-40.07 -19.698,-63.666c0,-21.508 6.194,-41.213 18.556,-59.102c6.662,-9.707 17.514,-20.934 32.551,-33.689c-9.896,-12.178 -19.793,-21.695 -29.697,-28.549c-17.891,-12.37 -38.164,-18.555 -60.812,-18.555c-13.511,0 -29.979,3.234 -49.389,9.71c-18.654,6.471 -32.265,9.71 -40.826,9.71c-6.475,0 -19.606,-2.853 -39.401,-8.566c-19.985,-5.711 -36.831,-8.564 -50.535,-8.564c-32.738,0 -59.766,13.706 -81.083,41.112c-21.508,27.79 -32.264,63.382 -32.264,106.78c0,46.062 13.993,93.928 41.971,143.607c28.358,49.297 57.005,73.949 85.936,73.949c9.707,0 22.27,-3.237 37.685,-9.708c15.42,-6.276 28.933,-9.421 40.545,-9.421c12.368,0 26.741,3.045 43.109,9.133c17.319,6.085 30.646,9.131 39.971,9.131c24.362,0 48.824,-18.654 73.374,-55.959c15.985,-23.791 27.692,-47.582 35.115,-71.376c-16.94,-5.143 -31.974,-17.134 -45.108,-35.977z"/>
    <path fill="#35536b" id="svg_4" d="m294.213,90.219c11.994,-11.991 20.844,-25.126 26.556,-39.399c5.517,-14.275 8.271,-27.22 8.271,-38.832c0,-0.759 -0.041,-1.712 -0.144,-2.855c-0.086,-1.142 -0.137,-2.091 -0.137,-2.853c-0.192,-0.572 -0.428,-1.619 -0.712,-3.14c-0.284,-1.521 -0.521,-2.568 -0.716,-3.14c-33.499,7.808 -57.29,21.892 -71.376,42.259c-14.271,20.557 -21.698,45.013 -22.27,73.373c12.753,-1.143 22.646,-2.758 29.692,-4.853c10.286,-3.427 20.552,-10.282 30.836,-20.56z"/>
   </g>
  </g>
  <g id="svg_5"/>
  <g id="svg_6"/>
  <g id="svg_7"/>
  <g id="svg_8"/>
  <g id="svg_9"/>
  <g id="svg_10"/>
  <g id="svg_11"/>
  <g id="svg_12"/>
  <g id="svg_13"/>
  <g id="svg_14"/>
  <g id="svg_15"/>
  <g id="svg_16"/>
  <g id="svg_17"/>
  <g id="svg_18"/>
  <g id="svg_19"/>
 </g>
</svg>