<svg width="548.176" height="548.176" xmlns="http://www.w3.org/2000/svg">

 <g>
  <title>background</title>
  <rect fill="none" id="canvas_background" height="402" width="582" y="-1" x="-1"/>
 </g>
 <g>
  <title>Layer 1</title>
  <g id="svg_1">
   <path fill="#35536b" id="svg_2" d="m524.326,297.352c-15.896,-19.89 -36.21,-32.782 -60.959,-38.684c7.81,-11.8 11.704,-24.934 11.704,-39.399c0,-20.177 -7.139,-37.401 -21.409,-51.678c-14.273,-14.272 -31.498,-21.411 -51.675,-21.411c-18.083,0 -33.879,5.901 -47.39,17.703c-11.225,-27.41 -29.171,-49.393 -53.817,-65.95c-24.646,-16.562 -51.818,-24.842 -81.514,-24.842c-40.349,0 -74.802,14.279 -103.353,42.83c-28.553,28.544 -42.825,62.999 -42.825,103.351c0,2.474 0.191,6.567 0.571,12.275c-22.459,10.469 -40.349,26.171 -53.676,47.106c-13.322,20.941 -19.983,43.777 -19.983,68.526c0,35.214 12.517,65.329 37.544,90.358c25.028,25.037 55.15,37.548 90.362,37.548l310.636,0c30.259,0 56.096,-10.711 77.512,-32.12c21.413,-21.409 32.121,-47.246 32.121,-77.516c-0.003,-25.505 -7.952,-48.201 -23.849,-68.097zm-161.731,10.992l-100.215,100.221c-1.711,1.707 -3.901,2.566 -6.567,2.566c-2.664,0 -4.854,-0.859 -6.567,-2.566l-100.496,-100.502c-1.713,-1.711 -2.568,-3.901 -2.568,-6.567c0,-2.474 0.9,-4.616 2.708,-6.423c1.812,-1.808 3.949,-2.711 6.423,-2.711l63.954,0l0,-100.497c0,-2.474 0.905,-4.616 2.712,-6.427c1.809,-1.805 3.949,-2.708 6.423,-2.708l54.823,0c2.478,0 4.609,0.9 6.427,2.708c1.804,1.811 2.707,3.953 2.707,6.427l0,100.497l63.954,0c2.665,0 4.855,0.855 6.563,2.566c1.714,1.711 2.562,3.901 2.562,6.567c0,2.294 -0.944,4.569 -2.843,6.849z"/>
  </g>
  <g id="svg_3"/>
  <g id="svg_4"/>
  <g id="svg_5"/>
  <g id="svg_6"/>
  <g id="svg_7"/>
  <g id="svg_8"/>
  <g id="svg_9"/>
  <g id="svg_10"/>
  <g id="svg_11"/>
  <g id="svg_12"/>
  <g id="svg_13"/>
  <g id="svg_14"/>
  <g id="svg_15"/>
  <g id="svg_16"/>
  <g id="svg_17"/>
 </g>
</svg>