<svg width="522.468" height="522.469" xmlns="http://www.w3.org/2000/svg">

 <g>
  <title>background</title>
  <rect fill="none" id="canvas_background" height="402" width="582" y="-1" x="-1"/>
 </g>
 <g>
  <title>Layer 1</title>
  <g id="svg_1">
   <g id="svg_2">
    <path fill="#35536b" id="svg_3" d="m325.762,70.513l-17.706,-4.854c-2.279,-0.76 -4.524,-0.521 -6.707,0.715c-2.19,1.237 -3.669,3.094 -4.429,5.568l-106.494,368.588c-0.76,2.475 -0.522,4.809 0.715,6.995c1.237,2.19 3.09,3.665 5.568,4.425l17.701,4.856c2.284,0.766 4.521,0.526 6.71,-0.712c2.19,-1.243 3.666,-3.094 4.425,-5.564l106.497,-368.594c0.759,-2.474 0.523,-4.808 -0.716,-6.999c-1.238,-2.19 -3.089,-3.665 -5.564,-4.424z"/>
    <path fill="#35536b" id="svg_4" d="m166.167,142.465c0,-2.474 -0.953,-4.665 -2.856,-6.567l-14.277,-14.276c-1.903,-1.903 -4.093,-2.857 -6.567,-2.857s-4.665,0.955 -6.567,2.857l-133.044,133.044c-1.906,1.903 -2.856,4.093 -2.856,6.567c0,2.474 0.953,4.664 2.856,6.566l133.043,133.044c1.902,1.906 4.089,2.854 6.567,2.854s4.665,-0.951 6.567,-2.854l14.277,-14.268c1.903,-1.902 2.856,-4.093 2.856,-6.57c0,-2.471 -0.953,-4.661 -2.856,-6.563l-112.203,-112.209l112.204,-112.201c1.906,-1.902 2.856,-4.093 2.856,-6.567z"/>
    <path fill="#35536b" id="svg_5" d="m519.614,254.663l-133.047,-133.044c-1.902,-1.902 -4.093,-2.857 -6.563,-2.857c-2.478,0 -4.661,0.955 -6.57,2.857l-14.271,14.275c-1.902,1.903 -2.851,4.09 -2.851,6.567s0.948,4.665 2.851,6.567l112.206,112.204l-112.206,112.21c-1.902,1.902 -2.851,4.093 -2.851,6.563c0,2.478 0.948,4.668 2.851,6.57l14.271,14.268c1.909,1.906 4.093,2.854 6.57,2.854c2.471,0 4.661,-0.951 6.563,-2.854l133.047,-133.043c1.903,-1.902 2.854,-4.096 2.854,-6.57c0,-2.475 -0.951,-4.665 -2.854,-6.567z"/>
   </g>
  </g>
  <g id="svg_6"/>
  <g id="svg_7"/>
  <g id="svg_8"/>
  <g id="svg_9"/>
  <g id="svg_10"/>
  <g id="svg_11"/>
  <g id="svg_12"/>
  <g id="svg_13"/>
  <g id="svg_14"/>
  <g id="svg_15"/>
  <g id="svg_16"/>
  <g id="svg_17"/>
  <g id="svg_18"/>
  <g id="svg_19"/>
  <g id="svg_20"/>
 </g>
</svg>