<svg width="548.176" height="548.176" xmlns="http://www.w3.org/2000/svg">

 <g>
  <title>background</title>
  <rect fill="none" id="canvas_background" height="402" width="582" y="-1" x="-1"/>
 </g>
 <g>
  <title>Layer 1</title>
  <g id="svg_1">
   <g id="svg_2">
    <path fill="#35536b" id="svg_3" d="m534.75,68.238c-8.945,-8.945 -19.694,-13.417 -32.261,-13.417l-456.808,0c-12.562,0 -23.313,4.471 -32.264,13.417c-8.946,8.947 -13.417,19.698 -13.417,32.261l0,347.173c0,12.566 4.471,23.318 13.417,32.264c8.951,8.946 19.702,13.419 32.264,13.419l456.815,0c12.56,0 23.312,-4.473 32.258,-13.419c8.945,-8.945 13.422,-19.697 13.422,-32.264l0,-347.173c0,-12.563 -4.477,-23.314 -13.426,-32.261zm-23.123,379.434c0,2.478 -0.903,4.62 -2.711,6.427c-1.81,1.807 -3.952,2.71 -6.427,2.71l-456.808,0c-2.473,0 -4.615,-0.903 -6.423,-2.71c-1.807,-1.813 -2.712,-3.949 -2.712,-6.427l0,-347.173c0,-2.474 0.902,-4.611 2.712,-6.423c1.809,-1.804 3.951,-2.708 6.423,-2.708l456.815,0c2.471,0 4.613,0.902 6.42,2.708c1.808,1.812 2.711,3.949 2.711,6.423l0,347.173l0,0z"/>
    <rect fill="#35536b" id="svg_4" height="109.632" width="73.089" y="310.635" x="73.092"/>
    <rect fill="#35536b" id="svg_5" height="255.814" width="73.085" y="164.452" x="182.728"/>
    <rect fill="#35536b" id="svg_6" height="182.726" width="73.083" y="237.541" x="292.362"/>
    <rect fill="#35536b" id="svg_7" height="292.36" width="73.091" y="127.907" x="401.994"/>
   </g>
  </g>
  <g id="svg_8"/>
  <g id="svg_9"/>
  <g id="svg_10"/>
  <g id="svg_11"/>
  <g id="svg_12"/>
  <g id="svg_13"/>
  <g id="svg_14"/>
  <g id="svg_15"/>
  <g id="svg_16"/>
  <g id="svg_17"/>
  <g id="svg_18"/>
  <g id="svg_19"/>
  <g id="svg_20"/>
  <g id="svg_21"/>
  <g id="svg_22"/>
 </g>
</svg>