<svg width="519.625" height="519.625" xmlns="http://www.w3.org/2000/svg">

 <g>
  <title>background</title>
  <rect fill="none" id="canvas_background" height="402" width="582" y="-1" x="-1"/>
 </g>
 <g>
  <title>Layer 1</title>
  <g id="svg_1">
   <path fill="#35536b" id="svg_2" d="m512.195,388.575l-119.057,-298.067c-1.523,-3.617 -3.997,-6.757 -7.42,-9.419c-3.429,-2.668 -7.049,-3.999 -10.854,-3.999l-96.786,0c2.472,0 4.661,0.902 6.564,2.709c1.902,1.812 2.949,3.949 3.142,6.423l4.284,54.821c0.191,2.665 -0.568,4.854 -2.275,6.564c-1.718,1.713 -3.81,2.568 -6.287,2.568l-47.394,0c-2.474,0 -4.565,-0.855 -6.279,-2.568c-1.713,-1.709 -2.474,-3.899 -2.281,-6.564l4.283,-54.821c0.188,-2.474 1.233,-4.611 3.14,-6.423c1.903,-1.804 4.09,-2.709 6.567,-2.709l-96.789,0c-3.806,0 -7.423,1.331 -10.85,3.999c-3.424,2.659 -5.896,5.802 -7.421,9.419l-119.059,298.067c-4.949,11.8 -7.423,22.839 -7.423,33.119c0,13.895 4.377,20.841 13.134,20.841l200.996,0c-2.474,0 -4.565,-0.903 -6.28,-2.71c-1.713,-1.813 -2.474,-3.949 -2.281,-6.427l5.708,-73.08c0.19,-2.478 1.237,-4.617 3.14,-6.427c1.902,-1.811 4.093,-2.707 6.567,-2.707l77.654,0c2.478,0 4.661,0.896 6.57,2.707c1.903,1.81 2.95,3.949 3.139,6.427l5.715,73.08c0.195,2.478 -0.575,4.613 -2.282,6.427c-1.711,1.807 -3.806,2.71 -6.283,2.71l200.993,0c8.754,0 13.135,-6.946 13.135,-20.841c0,-10.276 -2.478,-21.316 -7.43,-33.119zm-209.269,-100.215c0.185,2.286 -0.575,4.188 -2.286,5.708c-1.708,1.526 -3.713,2.286 -5.995,2.286l-69.665,0c-2.285,0 -4.287,-0.76 -5.996,-2.286c-1.715,-1.526 -2.475,-3.429 -2.286,-5.708l0,-1.143l6.854,-91.356c0.19,-2.475 1.237,-4.615 3.14,-6.424c1.903,-1.809 4.093,-2.712 6.567,-2.712l53.1,0c2.478,0 4.668,0.9 6.57,2.712c1.902,1.809 2.95,3.949 3.142,6.424l6.852,91.356l0,1.143l0.003,0z"/>
  </g>
  <g id="svg_3"/>
  <g id="svg_4"/>
  <g id="svg_5"/>
  <g id="svg_6"/>
  <g id="svg_7"/>
  <g id="svg_8"/>
  <g id="svg_9"/>
  <g id="svg_10"/>
  <g id="svg_11"/>
  <g id="svg_12"/>
  <g id="svg_13"/>
  <g id="svg_14"/>
  <g id="svg_15"/>
  <g id="svg_16"/>
  <g id="svg_17"/>
 </g>
</svg>